<?xml version="1.0" standalone="no"?>
<!DOCTYPE svg PUBLIC "-//W3C//DTD SVG 20010904//EN"
 "http://www.w3.org/TR/2001/REC-SVG-20010904/DTD/svg10.dtd">
<svg version="1.0" xmlns="http://www.w3.org/2000/svg"
 width="100.000000pt" height="80.000000pt" viewBox="0 0 100.000000 80.000000"
 preserveAspectRatio="xMidYMid meet">

<g transform="translate(0.000000,80.000000) scale(0.100000,-0.100000)"
fill="#000000" stroke="none">
<path d="M550 541 c0 -22 -4 -43 -10 -46 -6 -4 -10 8 -10 29 0 35 -1 36 -37
36 -90 0 -111 -9 -144 -63 -23 -37 -33 -47 -42 -38 -6 6 -22 11 -35 11 -17 0
-23 -5 -20 -17 2 -12 11 -17 26 -15 22 3 30 -12 12 -23 -5 -3 -10 -34 -10 -67
0 -46 4 -64 18 -74 10 -8 12 -13 5 -14 -7 0 -13 -9 -13 -20 0 -17 7 -20 49
-20 31 0 51 5 54 13 2 8 23 11 70 9 67 -4 67 -4 67 23 0 15 4 24 10 20 6 -3
10 -22 10 -41 0 -56 20 -29 22 29 1 50 2 51 5 10 6 -59 23 -54 23 6 0 28 5 53
10 56 6 4 10 -10 10 -34 0 -23 5 -41 10 -41 6 0 10 9 10 20 0 11 5 20 10 20 6
0 10 -16 10 -35 0 -19 5 -35 10 -35 6 0 10 51 10 134 0 79 -4 137 -10 141 -6
4 -10 -21 -10 -69 0 -41 -4 -78 -10 -81 -6 -4 -10 30 -10 94 0 61 -4 101 -10
101 -6 0 -10 -28 -10 -65 0 -37 -4 -65 -10 -65 -5 0 -10 25 -10 55 0 70 -18
72 -23 3 -3 -46 -4 -43 -5 20 -2 74 -22 104 -22 33z m-176 -165 c33 -14 53
-33 43 -42 -2 -3 -25 0 -50 7 -30 7 -47 17 -50 30 -6 23 10 24 57 5z"/>
<path d="M700 381 c0 -61 4 -101 10 -101 6 0 10 38 10 94 0 53 -4 98 -10 101
-6 4 -10 -30 -10 -94z"/>
<path d="M735 428 c-9 -22 -2 -68 10 -71 14 -3 19 63 6 76 -7 7 -12 5 -16 -5z"/>
</g>
</svg>
